<svg data-v-423bf9ae="" xmlns="http://www.w3.org/2000/svg" viewBox="0 0 362 90" class="iconLeft"><!----><!----><!----><g data-v-423bf9ae="" id="103804f5-c76c-42f0-a818-d6708416900f" fill="#ffffff" transform="matrix(5.190311230281897,0,0,5.190311230281897,110.21440339964656,19.567472546596555)"><path d="M8.55 4.76L8.55 5.32L8.55 5.32Q8.55 8.11 7.48 9.30L7.48 9.30L7.48 9.30Q6.41 10.50 4.07 10.50L4.07 10.50L0.85 10.50L0.85-0.42L4.07-0.42L4.07-0.42Q6.41-0.42 7.48 0.78L7.48 0.78L7.48 0.78Q8.55 1.97 8.55 4.76L8.55 4.76ZM2.73 1.22L2.73 8.86L3.96 8.86L3.96 8.86Q5.40 8.86 6.02 8.03L6.02 8.03L6.02 8.03Q6.64 7.20 6.64 5.32L6.64 5.32L6.64 4.76L6.64 4.76Q6.64 2.88 6.02 2.05L6.02 2.05L6.02 2.05Q5.40 1.22 3.96 1.22L3.96 1.22L2.73 1.22ZM11.83 10.50L10.01 10.50L10.01 3.08L11.83 3.08L11.83 10.50ZM9.93-0.18L11.91-0.18L11.91 1.79L9.93 1.79L9.93-0.18ZM15.95 1.92L15.95 1.92L15.95 3.08L17.72 3.08L17.72 4.68L15.95 4.68L15.95 10.50L14.13 10.50L14.13 4.68L12.99 4.68L12.99 3.08L14.13 3.08L14.13 1.71L14.13 1.71Q14.13-0.88 16.72-0.88L16.72-0.88L16.72-0.88Q17.50-0.88 17.86-0.70L17.86-0.70L17.86 0.81L17.86 0.81Q17.64 0.70 17.15 0.70L17.15 0.70L17.15 0.70Q16.53 0.70 16.24 0.96L16.24 0.96L16.24 0.96Q15.95 1.22 15.95 1.92ZM19.01 8.15L19.01 3.08L20.82 3.08L20.82 7.87L20.82 7.87Q20.82 9.09 22.01 9.09L22.01 9.09L22.01 9.09Q23.02 9.09 23.55 8.25L23.55 8.25L23.55 3.08L25.37 3.08L25.37 8.40L25.48 10.50L23.87 10.50L23.70 9.52L23.70 9.52Q22.90 10.68 21.29 10.68L21.29 10.68L21.29 10.68Q20.15 10.68 19.58 9.97L19.58 9.97L19.58 9.97Q19.01 9.25 19.01 8.15L19.01 8.15ZM29.85 9.27L29.85 9.27L29.85 9.27Q30.48 9.27 30.80 9.02L30.80 9.02L30.80 9.02Q31.12 8.76 31.12 8.34L31.12 8.34L31.12 8.34Q31.12 7.87 30.81 7.67L30.81 7.67L30.81 7.67Q30.51 7.46 29.71 7.39L29.71 7.39L29.71 7.39Q28.17 7.27 27.51 6.80L27.51 6.80L27.51 6.80Q26.85 6.33 26.85 5.35L26.85 5.35L26.85 5.24L26.85 5.24Q26.85 4.09 27.67 3.49L27.67 3.49L27.67 3.49Q28.49 2.90 29.85 2.90L29.85 2.90L29.85 2.90Q32.86 2.90 32.86 5.43L32.86 5.43L32.86 5.50L31.08 5.50L31.08 5.50Q31.08 4.31 29.85 4.31L29.85 4.31L29.85 4.31Q29.27 4.31 28.96 4.55L28.96 4.55L28.96 4.55Q28.64 4.79 28.64 5.19L28.64 5.19L28.64 5.19Q28.64 5.63 28.93 5.83L28.93 5.83L28.93 5.83Q29.22 6.03 30.00 6.09L30.00 6.09L30.00 6.09Q31.51 6.22 32.23 6.66L32.23 6.66L32.23 6.66Q32.94 7.11 32.94 8.18L32.94 8.18L32.94 8.27L32.94 8.27Q32.94 9.39 32.15 10.04L32.15 10.04L32.15 10.04Q31.36 10.68 29.85 10.68L29.85 10.68L29.85 10.68Q28.32 10.68 27.54 10.00L27.54 10.00L27.54 10.00Q26.75 9.31 26.75 8.23L26.75 8.23L26.75 8.18L28.56 8.18L28.56 8.18Q28.56 9.27 29.85 9.27ZM40.75 6.61L40.75 7.46L35.85 7.46L35.85 7.46Q35.95 9.27 37.52 9.27L37.52 9.27L37.52 9.27Q38.22 9.27 38.63 8.93L38.63 8.93L38.63 8.93Q39.03 8.58 39.03 8.12L39.03 8.12L40.75 8.12L40.75 8.18L40.75 8.18Q40.75 9.23 39.89 9.95L39.89 9.95L39.89 9.95Q39.03 10.68 37.51 10.68L37.51 10.68L37.51 10.68Q35.78 10.68 34.91 9.66L34.91 9.66L34.91 9.66Q34.03 8.64 34.03 6.97L34.03 6.97L34.03 6.61L34.03 6.61Q34.03 4.94 34.90 3.92L34.90 3.92L34.90 3.92Q35.77 2.90 37.44 2.90L37.44 2.90L37.44 2.90Q39.07 2.90 39.91 3.92L39.91 3.92L39.91 3.92Q40.75 4.94 40.75 6.61L40.75 6.61ZM37.39 4.31L37.39 4.31L37.39 4.31Q35.97 4.31 35.85 6.12L35.85 6.12L38.92 6.12L38.92 6.12Q38.84 4.31 37.39 4.31ZM48.50 6.61L48.50 7.46L43.60 7.46L43.60 7.46Q43.69 9.27 45.26 9.27L45.26 9.27L45.26 9.27Q45.96 9.27 46.37 8.93L46.37 8.93L46.37 8.93Q46.77 8.58 46.77 8.12L46.77 8.12L48.50 8.12L48.50 8.18L48.50 8.18Q48.50 9.23 47.63 9.95L47.63 9.95L47.63 9.95Q46.77 10.68 45.25 10.68L45.25 10.68L45.25 10.68Q43.53 10.68 42.65 9.66L42.65 9.66L42.65 9.66Q41.78 8.64 41.78 6.97L41.78 6.97L41.78 6.61L41.78 6.61Q41.78 4.94 42.64 3.92L42.64 3.92L42.64 3.92Q43.51 2.90 45.18 2.90L45.18 2.90L45.18 2.90Q46.82 2.90 47.66 3.92L47.66 3.92L47.66 3.92Q48.50 4.94 48.50 6.61L48.50 6.61ZM45.14 4.31L45.14 4.31L45.14 4.31Q43.71 4.31 43.60 6.12L43.60 6.12L46.66 6.12L46.66 6.12Q46.58 4.31 45.14 4.31Z"></path></g><!----><g data-v-423bf9ae="" id="1736b73d-18f2-40cc-8b65-96e935eb2e13" transform="matrix(1.0514017941910365,0,0,1.0514017941910365,-4.585510257613251,-6.328971365173267)" stroke="none" fill="#D4233B"><path d="M22.5 92L5.3 39.1l45-32.7 45 32.7L78.1 92z"></path></g><!----></svg>